<?xml version="1.0" standalone="no"?>
<!DOCTYPE svg PUBLIC "-//W3C//DTD SVG 20010904//EN"
 "http://www.w3.org/TR/2001/REC-SVG-20010904/DTD/svg10.dtd">
<svg version="1.0" xmlns="http://www.w3.org/2000/svg"
 width="300.000000pt" height="300.000000pt" viewBox="0 0 300.000000 300.000000"
 preserveAspectRatio="xMidYMid meet">
<metadata>
Created by potrace 1.14, written by Peter Selinger 2001-2017
</metadata>
<g transform="translate(0.000000,300.000000) scale(0.100000,-0.100000)"
fill="#000000" stroke="none">
<path d="M0 1500 l0 -1500 1500 0 1500 0 0 1500 0 1500 -1500 0 -1500 0 0
-1500z m880 1043 c0 -38 -3 -85 -6 -105 l-7 -38 -138 0 -139 0 0 -910 0 -910
145 0 145 0 0 -67 c0 -38 -3 -85 -6 -106 l-7 -37 -207 0 -207 0 -7 38 c-3 20
-6 524 -6 1120 l0 1082 220 0 220 0 0 -67z m1664 21 c8 -61 8 -2087 0 -2148
l-7 -46 -213 0 -214 0 0 105 0 104 143 3 142 3 0 905 0 905 -142 3 -143 3 0
104 0 105 214 0 213 0 7 -46z m-748 -188 c80 -25 137 -75 176 -153 l33 -68 -1
-160 c0 -146 -3 -167 -27 -240 -32 -97 -76 -168 -147 -241 -97 -99 -204 -133
-411 -134 l-97 0 -10 -57 c-5 -32 -27 -160 -49 -285 l-38 -228 -72 0 -71 0 -1
48 c0 40 240 1473 256 1526 5 17 16 18 207 13 145 -3 215 -9 252 -21z"/>
<path d="M1459 2168 c-19 -91 -95 -555 -92 -560 14 -24 241 0 302 32 104 53
181 194 181 330 -1 88 -59 168 -138 190 -31 8 -251 15 -253 8z"/>
</g>
</svg>
